<?xml version="1.0" encoding="UTF-8" standalone="no"?>
<!DOCTYPE svg PUBLIC "-//W3C//DTD SVG 1.0//EN" "http://www.w3.org/TR/2001/PR-SVG-20010719/DTD/svg10.dtd">
<svg width="45cm" height="31cm" viewBox="135 -101 894 619" xmlns="http://www.w3.org/2000/svg" xmlns:xlink="http://www.w3.org/1999/xlink">
  <g>
    <rect style="fill: #ffffff" x="137" y="54" width="892" height="463"/>
    <rect style="fill: none; fill-opacity:0; stroke-width: 2; stroke: #000000" x="137" y="54" width="892" height="463"/>
  </g>
  <g>
    <rect style="fill: #ffffff" x="189" y="144" width="206" height="108"/>
    <rect style="fill: none; fill-opacity:0; stroke-width: 2; stroke: #000000" x="189" y="144" width="206" height="108"/>
  </g>
  <g>
    <rect style="fill: #ffffff" x="557" y="141" width="423" height="343"/>
    <rect style="fill: none; fill-opacity:0; stroke-width: 2; stroke: #000000" x="557" y="141" width="423" height="343"/>
  </g>
  <g>
    <rect style="fill: #ffffff" x="640" y="222" width="30" height="20"/>
    <rect style="fill: none; fill-opacity:0; stroke-width: 2; stroke: #000000" x="640" y="222" width="30" height="20"/>
  </g>
  <g>
    <rect style="fill: #ffffff" x="767" y="305.7" width="55.9" height="38.3"/>
    <rect style="fill: none; fill-opacity:0; stroke-width: 2; stroke: #000000" x="767" y="305.7" width="55.9" height="38.3"/>
  </g>
  <g>
    <rect style="fill: #ffffff" x="873.8" y="415.4" width="35.2" height="17.6"/>
    <rect style="fill: none; fill-opacity:0; stroke-width: 2; stroke: #000000" x="873.8" y="415.4" width="35.2" height="17.6"/>
  </g>
  <g>
    <rect style="fill: #ffffff" x="617" y="375.1" width="98.7" height="71.9"/>
    <rect style="fill: none; fill-opacity:0; stroke-width: 2; stroke: #000000" x="617" y="375.1" width="98.7" height="71.9"/>
  </g>
  <g>
    <rect style="fill: #ffffff" x="845.6" y="170" width="60.4" height="44"/>
    <rect style="fill: none; fill-opacity:0; stroke-width: 2; stroke: #000000" x="845.6" y="170" width="60.4" height="44"/>
  </g>
  <g>
    <line style="fill: none; fill-opacity:0; stroke-width: 2; stroke: #000000" x1="765.995" y1="344.259" x2="724.734" y2="371.915"/>
    <polygon style="fill: #000000" points="718.505,376.091 724.027,366.37 724.734,371.915 729.595,374.676 "/>
    <polygon style="fill: none; fill-opacity:0; stroke-width: 2; stroke: #000000" points="718.505,376.091 724.027,366.37 724.734,371.915 729.595,374.676 "/>
  </g>
  <g>
    <line style="fill: none; fill-opacity:0; stroke-width: 2; stroke: #000000" x1="716.692" y1="413.992" x2="863.075" y2="422.545"/>
    <polygon style="fill: #000000" points="870.562,422.982 860.288,427.391 863.075,422.545 860.871,417.408 "/>
    <polygon style="fill: none; fill-opacity:0; stroke-width: 2; stroke: #000000" points="870.562,422.982 860.288,427.391 863.075,422.545 860.871,417.408 "/>
  </g>
  <g>
    <line style="fill: none; fill-opacity:0; stroke-width: 2; stroke: #000000" x1="881.881" y1="414.395" x2="821.288" y2="351.98"/>
    <polygon style="fill: #000000" points="816.064,346.598 826.617,350.291 821.288,351.98 819.442,357.256 "/>
    <polygon style="fill: none; fill-opacity:0; stroke-width: 2; stroke: #000000" points="816.064,346.598 826.617,350.291 821.288,351.98 819.442,357.256 "/>
  </g>
  <g>
    <line style="fill: none; fill-opacity:0; stroke-width: 2; stroke: #000000" x1="877.342" y1="214.959" x2="890.09" y2="404.707"/>
    <polygon style="fill: #000000" points="890.593,412.19 884.934,402.548 890.09,404.707 894.912,401.877 "/>
    <polygon style="fill: none; fill-opacity:0; stroke-width: 2; stroke: #000000" points="890.593,412.19 884.934,402.548 890.09,404.707 894.912,401.877 "/>
  </g>
  <g>
    <line style="fill: none; fill-opacity:0; stroke-width: 2; stroke: #000000" x1="670.983" y1="229.104" x2="835.035" y2="199.385"/>
    <polygon style="fill: #000000" points="842.415,198.048 833.466,204.751 835.035,199.385 831.684,194.911 "/>
    <polygon style="fill: none; fill-opacity:0; stroke-width: 2; stroke: #000000" points="842.415,198.048 833.466,204.751 835.035,199.385 831.684,194.911 "/>
  </g>
  <g>
    <line style="fill: none; fill-opacity:0; stroke-width: 2; stroke: #000000" x1="766.002" y1="305.644" x2="679.112" y2="247.997"/>
    <polygon style="fill: #000000" points="672.862,243.851 683.959,245.213 679.112,247.997 678.431,253.546 "/>
    <polygon style="fill: none; fill-opacity:0; stroke-width: 2; stroke: #000000" points="672.862,243.851 683.959,245.213 679.112,247.997 678.431,253.546 "/>
  </g>
  <g>
    <path style="fill: none; fill-opacity:0; stroke-width: 2; stroke: #000000" d="M 855.607,215.007 A 363.109,363.109 0 0 0 806.364,295.761"/>
    <polygon style="fill: #000000" points="803.392,302.645 802.571,291.495 806.245,295.708 811.82,295.298 "/>
    <polygon style="fill: none; fill-opacity:0; stroke-width: 2; stroke: #000000" points="803.392,302.645 802.571,291.495 806.245,295.708 811.82,295.298 "/>
  </g>
  <g>
    <path style="fill: none; fill-opacity:0; stroke-width: 2; stroke: #000000" d="M 813.217,304.808 A 337.352,337.352 0 0 0 863.594,223.958"/>
    <polygon style="fill: #000000" points="866.551,217.069 867.41,228.216 863.722,224.015 858.149,224.445 "/>
    <polygon style="fill: none; fill-opacity:0; stroke-width: 2; stroke: #000000" points="866.551,217.069 867.41,228.216 863.722,224.015 858.149,224.445 "/>
  </g>
  <g>
    <ellipse style="fill: #ffffff" cx="299" cy="427" rx="104" ry="47.5"/>
    <ellipse style="fill: none; fill-opacity:0; stroke-width: 2; stroke: #000000" cx="299" cy="427" rx="104" ry="47.5"/>
  </g>
  <g>
    <line style="fill: none; fill-opacity:0; stroke-width: 2; stroke: #000000" x1="396.005" y1="207.741" x2="629.299" y2="229.593"/>
    <polygon style="fill: #000000" points="636.766,230.292 626.343,234.338 629.299,229.593 627.276,224.381 "/>
    <polygon style="fill: none; fill-opacity:0; stroke-width: 2; stroke: #000000" points="636.766,230.292 626.343,234.338 629.299,229.593 627.276,224.381 "/>
  </g>
  <g>
    <line style="fill: none; fill-opacity:0; stroke-width: 2; stroke: #000000" x1="395.942" y1="224.215" x2="756.554" y2="315.166"/>
    <polygon style="fill: #000000" points="763.826,317 752.907,319.403 756.554,315.166 755.353,309.707 "/>
    <polygon style="fill: none; fill-opacity:0; stroke-width: 2; stroke: #000000" points="763.826,317 752.907,319.403 756.554,315.166 755.353,309.707 "/>
  </g>
  <g>
    <line style="fill: none; fill-opacity:0; stroke-width: 2; stroke: #000000" x1="388.626" y1="252.992" x2="607.576" y2="377.6"/>
    <polygon style="fill: #000000" points="614.094,381.31 602.93,380.709 607.576,377.6 607.876,372.018 "/>
    <polygon style="fill: none; fill-opacity:0; stroke-width: 2; stroke: #000000" points="614.094,381.31 602.93,380.709 607.576,377.6 607.876,372.018 "/>
  </g>
  <g>
    <path style="fill: none; fill-opacity:0; stroke-width: 2; stroke-dasharray: 20; stroke: #000000" d="M 279.038,252.992 A 338.062,338.062 0 0 0 282.004,369.518"/>
    <polygon style="fill: #000000" points="283.558,376.852 276.432,368.237 281.867,369.545 286.174,365.982 "/>
    <polygon style="fill: none; fill-opacity:0; stroke-width: 2; stroke: #000000" points="283.558,376.852 276.432,368.237 281.867,369.545 286.174,365.982 "/>
  </g>
  <g>
    <path style="fill: none; fill-opacity:0; stroke-width: 2; stroke-dasharray: 20; stroke: #000000" d="M 310.875,378.827 A 338.063,338.063 0 0 0 310.34,262.545"/>
    <polygon style="fill: #000000" points="308.942,255.18 315.884,263.944 310.478,262.521 306.096,265.992 "/>
    <polygon style="fill: none; fill-opacity:0; stroke-width: 2; stroke: #000000" points="308.942,255.18 315.884,263.944 310.478,262.521 306.096,265.992 "/>
  </g>
  <text font-size="12.7998" style="fill: #000000;text-anchor:start;font-family:sans-serif;font-style:normal;font-weight:normal" x="206" y="174">
    <tspan x="206" y="174">Mind</tspan>
  </text>
  <text font-size="12.7998" style="fill: #000000;text-anchor:start;font-family:sans-serif;font-style:normal;font-weight:normal" x="570" y="168">
    <tspan x="570" y="168">Memory</tspan>
  </text>
  <text font-size="17.204" style="fill: #000000;text-anchor:start;font-family:sans-serif;font-style:normal;font-weight:normal" x="263" y="434">
    <tspan x="263" y="434">Thinking</tspan>
  </text>
  <g>
    <line style="fill: none; fill-opacity:0; stroke-width: 2; stroke-dasharray: 20; stroke: #000000" x1="403.5" y1="426.184" x2="545.264" y2="425.076"/>
    <polygon style="fill: #000000" points="552.764,425.017 542.803,430.095 545.264,425.076 542.725,420.096 "/>
    <polygon style="fill: none; fill-opacity:0; stroke-width: 2; stroke: #000000" points="552.764,425.017 542.803,430.095 545.264,425.076 542.725,420.096 "/>
  </g>
  <text font-size="12.7998" style="fill: #000000;text-anchor:start;font-family:sans-serif;font-style:normal;font-weight:normal" x="437" y="116">
    <tspan x="437" y="116"></tspan>
  </text>
  <text font-size="27.0929" style="fill: #000000;text-anchor:start;font-family:sans-serif;font-style:normal;font-weight:normal" x="520" y="106">
    <tspan x="520" y="106">Brain</tspan>
  </text>
  <g>
    <rect style="fill: #ffffff" x="197" y="-99.25" width="194" height="105"/>
    <rect style="fill: none; fill-opacity:0; stroke-width: 2; stroke: #000000" x="197" y="-99.25" width="194" height="105"/>
  </g>
  <text font-size="22.5774" style="fill: #000000;text-anchor:start;font-family:sans-serif;font-style:normal;font-weight:normal" x="254" y="-38.25">
    <tspan x="254" y="-38.25">Output</tspan>
  </text>
  <g>
    <line style="fill: none; fill-opacity:0; stroke-width: 2; stroke: #000000" x1="292.449" y1="143.012" x2="293.483" y2="16.48"/>
    <polygon style="fill: #000000" points="293.545,8.98024 298.463,19.0208 293.483,16.48 288.463,18.9391 "/>
    <polygon style="fill: none; fill-opacity:0; stroke-width: 2; stroke: #000000" points="293.545,8.98024 298.463,19.0208 293.483,16.48 288.463,18.9391 "/>
  </g>
</svg>
